<?xml version="1.0" encoding="UTF-8"?>
<svg width="800px" height="800px" viewBox="0 0 24 24" version="1.1" xmlns="http://www.w3.org/2000/svg" xmlns:xlink="http://www.w3.org/1999/xlink">
    <title>Event Placeholder</title>
    <g id="Page-1" stroke="none" stroke-width="1" fill="none" fill-rule="evenodd">
        <g id="Calendar" fill="#3B82F6" fill-rule="nonzero">
            <path d="M19,3 L18,3 L18,1 L16,1 L16,3 L8,3 L8,1 L6,1 L6,3 L5,3 C3.9,3 3,3.9 3,5 L3,19 C3,20.1 3.9,21 5,21 L19,21 C20.1,21 21,20.1 21,19 L21,5 C21,3.9 20.1,3 19,3 Z M19,19 L5,19 L5,8 L19,8 L19,19 Z M7,10 L9,10 L9,12 L7,12 L7,10 Z M11,10 L13,10 L13,12 L11,12 L11,10 Z M15,10 L17,10 L17,12 L15,12 L15,10 Z M7,14 L9,14 L9,16 L7,16 L7,14 Z M11,14 L13,14 L13,16 L11,16 L11,14 Z M15,14 L17,14 L17,16 L15,16 L15,14 Z" id="Shape"></path>
        </g>
    </g>
</svg>
