<?xml version="1.0" encoding="UTF-8"?>
<svg width="800px" height="800px" viewBox="0 0 24 24" version="1.1" xmlns="http://www.w3.org/2000/svg" xmlns:xlink="http://www.w3.org/1999/xlink">
    <title>Fighter Placeholder</title>
    <g id="Page-1" stroke="none" stroke-width="1" fill="none" fill-rule="evenodd">
        <g id="Fighter" fill="#DC2626" fill-rule="nonzero">
            <path d="M12,0 C5.373,0 0,5.373 0,12 C0,18.627 5.373,24 12,24 C18.627,24 24,18.627 24,12 C24,5.373 18.627,0 12,0 Z M12,4 C14.21,4 16,5.79 16,8 C16,10.21 14.21,12 12,12 C9.79,12 8,10.21 8,8 C8,5.79 9.79,4 12,4 Z M12,20 C9.3,20 6.9,18.8 5.4,16.9 C6.9,15 9.3,14 12,14 C14.7,14 17.1,15 18.6,16.9 C17.1,18.8 14.7,20 12,20 Z" id="Shape"></path>
        </g>
    </g>
</svg>
